<svg xmlns="http://www.w3.org/2000/svg" width="30" height="34" viewBox="0 0 30 34">
  <g id="account" transform="translate(0 0)">
    <g id="Group_1232" data-name="Group 1232" transform="translate(0 0)">
      <g id="Group_1231" data-name="Group 1231" transform="translate(0)">
        <path id="Path_5701" data-name="Path 5701" d="M81.1,3.885a.652.652,0,0,0-.51-.523L66.568.02a.762.762,0,0,0-.352,0L52.2,3.362a.651.651,0,0,0-.51.523,41.445,41.445,0,0,0,.443,12.766,26.083,26.083,0,0,0,4.1,10.069,19.075,19.075,0,0,0,9.932,7.243.759.759,0,0,0,.466,0,19.075,19.075,0,0,0,9.932-7.243,26.084,26.084,0,0,0,4.1-10.069A41.453,41.453,0,0,0,81.1,3.885Zm-1.8,12.545a24.914,24.914,0,0,1-3.9,9.615,17.708,17.708,0,0,1-9,6.662A17.707,17.707,0,0,1,57.4,26.057a24.883,24.883,0,0,1-3.9-9.6,41.5,41.5,0,0,1-.491-11.995l13.384-3.19,13.384,3.19A41.444,41.444,0,0,1,79.291,16.43Z" transform="translate(-51.392 0)" fill="#fff"/>
      </g>
    </g>
    <g id="Group_1234" data-name="Group 1234" transform="translate(4.348 6.516)">
      <g id="Group_1233" data-name="Group 1233" transform="translate(0)">
        <path id="Path_5702" data-name="Path 5702" d="M121.355,98.124c-5.873,0-10.652,4.328-10.652,9.649s4.778,9.649,10.652,9.649,10.652-4.328,10.652-9.649S127.228,98.124,121.355,98.124Zm0,18.044a9.692,9.692,0,0,1-6.905-2.8,7.045,7.045,0,0,1,2.575-2.816,8.226,8.226,0,0,1,8.66,0,7.045,7.045,0,0,1,2.575,2.816A9.692,9.692,0,0,1,121.355,116.168Zm-3.189-10.992a3.2,3.2,0,1,1,3.189,2.889A3.054,3.054,0,0,1,118.165,105.176Zm8.312,4.347a9.3,9.3,0,0,0-2.345-1.06,4.017,4.017,0,0,0,1.8-3.287,4.595,4.595,0,0,0-9.145,0,4.017,4.017,0,0,0,1.8,3.287,9.307,9.307,0,0,0-2.345,1.06,8.439,8.439,0,0,0-2.713,2.728,7.783,7.783,0,0,1-1.432-4.479c0-4.629,4.158-8.4,9.268-8.4s9.268,3.766,9.268,8.4a7.782,7.782,0,0,1-1.432,4.479A8.439,8.439,0,0,0,126.477,109.523Z" transform="translate(-110.703 -98.124)" fill="#fff"/>
      </g>
    </g>
  </g>
</svg>
