<svg xmlns="http://www.w3.org/2000/svg" width="40.5" height="49.838" viewBox="0 0 40.5 49.838">
  <g id="fea1" transform="translate(-1249.75 -3655.749)">
    <circle id="Ellipse_104" data-name="Ellipse 104" cx="15" cy="15" r="15" transform="translate(1255 3666)" fill="#f47321"/>
    <g id="quran_1_" data-name="quran (1)" transform="translate(1250 3656)">
      <path id="Path_792" data-name="Path 792" d="M37.7,0H29.717a.722.722,0,1,0,0,1.443H37.7a.856.856,0,0,1,.855.855V41.457H7.247V1.443H25.1A.722.722,0,0,0,25.1,0H2.3A2.3,2.3,0,0,0,0,2.3V45.378c0,.006,0,.012,0,.018a3.945,3.945,0,0,0,3.94,3.94H37.7a2.3,2.3,0,0,0,2.3-2.3V2.3A2.3,2.3,0,0,0,37.7,0ZM1.444,2.3A.856.856,0,0,1,2.3,1.443H5.8V41.456a16.112,16.112,0,0,0-2.475.048,3.9,3.9,0,0,0-1.884.844ZM38.557,44.675H4.98a.722.722,0,0,0,0,1.443H38.557v.92a.856.856,0,0,1-.855.855H3.941a2.5,2.5,0,0,1,0-4.995H38.557Zm0,0" fill="#111842" stroke="#111842" stroke-width="0.5"/>
      <path id="Path_793" data-name="Path 793" d="M131.635,50.566H115.149a1.2,1.2,0,0,0-1.2,1.2v.6a.821.821,0,0,1-.82.819h-.686a1.2,1.2,0,0,0-1.2,1.2V79.674a1.2,1.2,0,0,0,1.2,1.2h.686a.821.821,0,0,1,.82.82v.6a1.2,1.2,0,0,0,1.2,1.2h16.486a1.2,1.2,0,0,0,1.2-1.2v-.6a.821.821,0,0,1,.82-.82h.686a1.247,1.247,0,0,0,1.2-1.4V69.833a.722.722,0,1,0-1.443,0v9.6h-.446a2.265,2.265,0,0,0-2.263,2.263v.355h-16V81.7a2.265,2.265,0,0,0-2.263-2.263h-.446V54.628h.446a2.265,2.265,0,0,0,2.263-2.263V52.01h16v.355a2.265,2.265,0,0,0,2.263,2.263h.446V65.264a.722.722,0,0,0,1.443,0V54.387a1.2,1.2,0,0,0-1.2-1.2h-.686a.821.821,0,0,1-.82-.819v-.6a1.2,1.2,0,0,0-1.2-1.2Zm0,0" transform="translate(-100.518 -45.694)" fill="#111842" stroke="#111842" stroke-width="0.5"/>
      <path id="Path_794" data-name="Path 794" d="M157.616,139.127a.9.9,0,0,0-.964-.259,8.829,8.829,0,0,0-3.467,14.532A8.65,8.65,0,0,0,159.3,156h.1a8.656,8.656,0,0,0,7.432-4.179.907.907,0,0,0-.963-1.362A7.267,7.267,0,0,1,159.2,148.5a7.414,7.414,0,0,1-1.445-8.384.907.907,0,0,0-.141-.991Zm.565,10.395a8.65,8.65,0,0,0,6.157,2.549c.183,0,.366-.006.549-.017a7.262,7.262,0,0,1-10.671.335,7.4,7.4,0,0,1,1.765-11.667,8.872,8.872,0,0,0,2.2,8.8Zm0,0" transform="translate(-136.149 -125.445)" fill="#111842" stroke="#111842" stroke-width="0.5"/>
      <path id="Path_795" data-name="Path 795" d="M246.791,141.4a.966.966,0,0,0-.783-.66l-1.585-.232-.71-1.449a.97.97,0,0,0-1.743,0l-.71,1.449-1.585.232a.973.973,0,0,0-.539,1.657l1.15,1.129-.272,1.6a.97.97,0,0,0,1.411,1.023l1.416-.75,1.416.75a.971.971,0,0,0,1.411-1.023l-.271-1.6,1.15-1.129a.969.969,0,0,0,.243-1Zm-2.58,1.269a.974.974,0,0,0-.277.858l.152.894L243.3,144a.968.968,0,0,0-.908,0l-.79.419.152-.9a.973.973,0,0,0-.278-.858l-.65-.638.893-.131a.97.97,0,0,0,.731-.534l.395-.805.394.8a.971.971,0,0,0,.731.535l.894.131Zm0,0" transform="translate(-215.829 -125.165)" fill="#111842" stroke="#111842" stroke-width="0.5"/>
    </g>
  </g>
</svg>
