<svg xmlns="http://www.w3.org/2000/svg" width="40.944" height="48.726" viewBox="0 0 40.944 48.726">
  <g id="fea2" transform="translate(-16.64 0.621)">
    <circle id="Ellipse_101" data-name="Ellipse 101" cx="15" cy="15" r="15" transform="translate(22.112 9)" fill="#f47321"/>
    <path id="Path_729" data-name="Path 729" d="M57.06,12.257c-.024-1.285-.048-2.5-.048-3.674a1.666,1.666,0,0,0-1.666-1.666c-7.126,0-12.552-2.048-17.074-6.445a1.666,1.666,0,0,0-2.323,0C31.427,4.869,26,6.917,18.877,6.917a1.666,1.666,0,0,0-1.666,1.666c0,1.175-.023,2.389-.048,3.675-.228,11.961-.541,28.341,19.4,35.254a1.664,1.664,0,0,0,1.091,0C57.6,40.6,57.289,24.218,57.06,12.257ZM37.111,44.17C20.007,37.956,20.266,24.345,20.5,12.322c.014-.722.027-1.421.036-2.107,6.674-.282,12.011-2.3,16.579-6.284,4.569,3.98,9.907,6,16.581,6.284.009.685.023,1.384.036,2.105C53.958,24.345,54.216,37.956,37.111,44.17Z" transform="translate(0 0)" fill="#111842" stroke="#fff" stroke-width="1"/>
    <path id="Path_730" data-name="Path 730" d="M83.041,79.381l-8.162,8.162L71.4,84.06A1.691,1.691,0,0,0,69,86.451l4.679,4.679a1.691,1.691,0,0,0,2.391,0l9.358-9.358a1.691,1.691,0,1,0-2.391-2.392Z" transform="translate(-40.107 -61.453)" fill="#111842"/>
  </g>
</svg>
