<svg xmlns="http://www.w3.org/2000/svg" width="51" height="48.321" viewBox="0 0 51 48.321">
  <g id="fea4" transform="translate(-325.5 -3794.5)">
    <path id="Path_859" data-name="Path 859" d="M15,0A15,15,0,1,1,0,15,15,15,0,0,1,15,0Z" transform="translate(336 3800)" fill="#f47321"/>
    <g id="support" transform="translate(326 3783)">
      <g id="Group_862" data-name="Group 862" transform="translate(0 12)">
        <g id="Group_861" data-name="Group 861">
          <path id="Path_739" data-name="Path 739" d="M42.857,29.9a17.857,17.857,0,1,0-35.714-.045V29.9A7.579,7.579,0,0,0,0,37.446v.893a7.583,7.583,0,0,0,7.589,7.589h.4l3.17,5.045a11.94,11.94,0,0,0,10.223,5.67h.625a3.571,3.571,0,1,0,0-1.786h-.625a10.186,10.186,0,0,1-8.705-4.866l-2.589-4.063h.625A1.791,1.791,0,0,0,12.5,44.143v-12.5a1.791,1.791,0,0,0-1.786-1.786H8.929a16.071,16.071,0,0,1,32.143,0H39.286A1.791,1.791,0,0,0,37.5,31.643v12.5a1.791,1.791,0,0,0,1.786,1.786h3.125A7.583,7.583,0,0,0,50,38.339v-.893A7.579,7.579,0,0,0,42.857,29.9ZM25.446,53.964a1.786,1.786,0,1,1-1.786,1.786A1.791,1.791,0,0,1,25.446,53.964ZM10.714,31.643v12.5H7.589a5.792,5.792,0,0,1-5.8-5.8v-.893a5.792,5.792,0,0,1,5.8-5.8Zm37.5,6.7a5.792,5.792,0,0,1-5.8,5.8H39.286v-12.5h3.125a5.792,5.792,0,0,1,5.8,5.8Z" transform="translate(0 -12)" fill="#111842" stroke="#111842" stroke-width="1"/>
          <path id="Path_740" data-name="Path 740" d="M274.183,67.752a4.121,4.121,0,0,1-.357-.223,4.094,4.094,0,0,0-.357-.223.84.84,0,0,0-1.205.312.876.876,0,0,0,.313,1.205,4.123,4.123,0,0,1,.357.223,1.809,1.809,0,0,0,.4.223.861.861,0,0,0,.446.134.829.829,0,0,0,.759-.446A.9.9,0,0,0,274.183,67.752Z" transform="translate(-241.773 -61.011)" fill="#111842" stroke="#111842" stroke-width="1"/>
          <path id="Path_741" data-name="Path 741" d="M144.158,52a12.929,12.929,0,0,0-9.821,4.509.906.906,0,0,0,.089,1.25.94.94,0,0,0,.58.223.8.8,0,0,0,.67-.312,11.262,11.262,0,0,1,8.482-3.884,11.082,11.082,0,0,1,2.411.268.947.947,0,0,0,1.071-.67.932.932,0,0,0-.67-1.071A12.073,12.073,0,0,0,144.158,52Z" transform="translate(-119.158 -47.536)" fill="#111842" stroke="#111842" stroke-width="1"/>
        </g>
      </g>
    </g>
  </g>
</svg>
