<svg xmlns="http://www.w3.org/2000/svg" width="14" height="14" viewBox="0 0 14 14">
  <g id="followers" transform="translate(-0.439)">
    <g id="Group_1124" data-name="Group 1124" transform="translate(0.44)">
      <g id="Group_1123" data-name="Group 1123" transform="translate(0)">
        <path id="Path_1051" data-name="Path 1051" d="M6.839,12.882H2.082a.546.546,0,0,1-.521-.713A4.218,4.218,0,0,1,5.569,9.32a4.1,4.1,0,0,1,2.351.736.546.546,0,1,0,.626-.9,5.2,5.2,0,0,0-1.091-.581,2.777,2.777,0,0,0,.905-1.833A4.122,4.122,0,0,1,13.58,6.32a.546.546,0,1,0,.626-.9,5.2,5.2,0,0,0-1.091-.581A2.789,2.789,0,1,0,9.36,4.838q-.114.044-.227.094a5.194,5.194,0,0,0-.963.552A2.787,2.787,0,1,0,3.7,8.569,5.254,5.254,0,0,0,.52,11.835a1.638,1.638,0,0,0,1.562,2.139H6.839a.546.546,0,1,0,0-1.092Zm4.4-11.791a1.692,1.692,0,1,1-1.7,1.692A1.7,1.7,0,0,1,11.241,1.092ZM5.581,4.828a1.692,1.692,0,1,1-1.7,1.692A1.7,1.7,0,0,1,5.581,4.828Z" transform="translate(-0.44)" fill="#404553"/>
        <path id="Path_1052" data-name="Path 1052" d="M269.635,322.451a.547.547,0,0,0-.763.126l-2.7,3.758a.313.313,0,0,1-.45.023l-1.745-1.673a.546.546,0,1,0-.757.787l1.747,1.674a1.411,1.411,0,0,0,.97.387q.046,0,.093,0a1.41,1.41,0,0,0,1-.521l.018-.024,2.706-3.774A.545.545,0,0,0,269.635,322.451Z" transform="translate(-255.864 -313.535)" fill="#404553"/>
      </g>
    </g>
  </g>
</svg>
