<svg xmlns="http://www.w3.org/2000/svg" width="30" height="22" viewBox="0 0 30 22">
  <g id="gift" transform="translate(0 -66.684)">
    <g id="Group_1236" data-name="Group 1236" transform="translate(0 66.684)">
      <path id="Path_5704" data-name="Path 5704" d="M29.3,82.786l-5.158-5.115a2.251,2.251,0,0,0-1.594-.655H22.47V75.789a.871.871,0,0,0,.5-.784V71.518a.876.876,0,0,0-.879-.872H17.671V68.284a1.579,1.579,0,0,0-.806-1.384,1.606,1.606,0,0,0-1.611,0l-2.947,1.687a2.212,2.212,0,0,0-1.645,0L7.715,66.9a1.606,1.606,0,0,0-1.611,0A1.579,1.579,0,0,0,5.3,68.284v2.362H.879A.876.876,0,0,0,0,71.518V75a.876.876,0,0,0,.879.872H8.847v11.33H1.816a.439.439,0,0,1-.439-.436V77.184a.439.439,0,0,0-.879,0h0v9.587a1.293,1.293,0,0,0,.386.924,1.315,1.315,0,0,0,.932.383h7.15a.88.88,0,0,0,.76.436h3.516a.88.88,0,0,0,.76-.436h7.15a1.314,1.314,0,0,0,1.318-1.307v-.35l1.582,1.569a2.406,2.406,0,0,0,3.382,0L29.3,86.14a2.357,2.357,0,0,0,0-3.354Zm-7.21-11.268V75H14.121V71.518Zm-.5,4.358v1.138h-1.27a2.037,2.037,0,0,0-1.023.281,3.585,3.585,0,0,1-.483-1.419ZM10.852,69.46a1.328,1.328,0,0,1,1.265,0,1.313,1.313,0,0,1,.624.75H10.229A1.329,1.329,0,0,1,10.852,69.46ZM8.847,75H.879V71.518H8.847Zm.575-5.151-1.708-.978a.441.441,0,0,0-.6.16.434.434,0,0,0,.161.6l1.713.981-.022.035H6.177V68.284a.718.718,0,0,1,.366-.629.73.73,0,0,1,.732,0l2.588,1.482A2.165,2.165,0,0,0,9.423,69.854Zm3.819,1.229V75H11.015a.436.436,0,1,0,0,.872h2.227V87.642H9.726V71.083h3.515Zm.76-.436-.022-.035,1.713-.981a.434.434,0,0,0,.161-.6.441.441,0,0,0-.6-.16l-1.709.978a2.179,2.179,0,0,0-.44-.717l2.588-1.482a.73.73,0,0,1,.732,0,.718.718,0,0,1,.366.629v2.362Zm7.15,16.56H14.121V75.876h3.81a4.446,4.446,0,0,0,.706,2.012,2.015,2.015,0,0,0-.405,1.2h0c0,.484,0,1.419,0,2.207a2.215,2.215,0,0,0,.661,1.58l2.7,2.675v1.222h0A.438.438,0,0,1,21.152,87.206Zm7.526-1.683-1.865,1.85a1.521,1.521,0,0,1-2.139,0L22.342,85.06h0l-2.826-2.8a1.354,1.354,0,0,1-.405-.965c0-.79,0-1.722,0-2.2a1.12,1.12,0,0,1,.111-.478l.022.022.57.565a.442.442,0,0,0,.622,0,.433.433,0,0,0,0-.616l-.57-.565L19.844,78a1.144,1.144,0,0,1,.48-.11c.436,0,1.635,0,2.223,0a1.374,1.374,0,0,1,.973.4L28.678,83.4a1.491,1.491,0,0,1,0,2.121Z" transform="translate(0 -66.684)" fill="#fff"/>
    </g>
  </g>
</svg>
