<svg xmlns="http://www.w3.org/2000/svg" width="14.001" height="13.953" viewBox="0 0 14.001 13.953">
  <g id="logout" transform="translate(0 -0.85)">
    <g id="Group_1096" data-name="Group 1096" transform="translate(0 0.85)">
      <g id="Group_1095" data-name="Group 1095" transform="translate(0 0)">
        <path id="Path_1037" data-name="Path 1037" d="M6.977,13.641H1.744a.582.582,0,0,1-.581-.581V2.594a.582.582,0,0,1,.581-.581H6.977a.581.581,0,0,0,0-1.163H1.744A1.746,1.746,0,0,0,0,2.594V13.059A1.746,1.746,0,0,0,1.744,14.8H6.977a.581.581,0,0,0,0-1.163Z" transform="translate(0 -0.85)" fill="#404553"/>
      </g>
    </g>
    <g id="Group_1098" data-name="Group 1098" transform="translate(4.651 3.757)">
      <g id="Group_1097" data-name="Group 1097">
        <path id="Path_1038" data-name="Path 1038" d="M179.276,110.82l-3.535-3.488a.581.581,0,0,0-.816.828l2.526,2.493h-6.769a.581.581,0,1,0,0,1.163h6.769l-2.526,2.493a.581.581,0,1,0,.816.828l3.535-3.488a.581.581,0,0,0,0-.828Z" transform="translate(-170.1 -107.165)" fill="#404553"/>
      </g>
    </g>
  </g>
</svg>
