<svg xmlns="http://www.w3.org/2000/svg" width="86.32" height="26" viewBox="0 0 86.32 26">
  <g id="mada" transform="translate(0 0)">
    <path id="Path_834" data-name="Path 834" d="M-268.677,221.74c0,.335-.009.67-.009,1.005q0,4.773,0,9.545c0,.492.061.438-.417.438q-12.6,0-25.2,0h-6.443c-.117,0-.234-.007-.35-.012q0-5.323-.006-10.646c0-.253.025-.342.316-.342Q-284.73,221.749-268.677,221.74Z" transform="translate(301.1 -221.73)" fill="#404553"/>
    <path id="Path_835" data-name="Path 835" d="M-301,452.783c.117,0,.234-.007.35-.007h31.644c.413,0,.413,0,.413.411,0,3.4-.005,6.8.008,10.2,0,.323-.09.384-.389.384q-16.013-.011-32.027-.005Z" transform="translate(301.007 -437.766)" fill="#404553"/>
    <path id="Path_836" data-name="Path 836" d="M595.743,225.645a3.948,3.948,0,0,0-1.567-2.941,3.7,3.7,0,0,0-2.164-.8h-1.149a.081.081,0,0,1-.127,0h-.191c-.027.088-.1.058-.159.067a6.259,6.259,0,0,0-1.238.3,2.351,2.351,0,0,0-1.717,2.471c0,1.169,0,2.339,0,3.508a4.282,4.282,0,0,1-.021.519.351.351,0,0,1-.412.362c-1.3-.018-2.595-.008-3.893-.008-.477,0-.469,0-.478-.494a20.59,20.59,0,0,0-.122-3.3,3.738,3.738,0,0,0-3.224-3.252,22.757,22.757,0,0,0-2.963-.064c-.154,0-.166.105-.182.213-.068.471-.127.943-.2,1.412-.034.208.032.258.23.255.659-.012,1.319,0,1.978,0a1.644,1.644,0,0,1,1.382.605,2.4,2.4,0,0,1,.491,1.18c.164,1.184.033,2.375.085,3.6a1.872,1.872,0,0,0-.618-.14c-1.309,0-2.617,0-3.925-.006-.148,0-.2.04-.22.192-.055.44-.1.882-.2,1.314-.068.3-.014.38.3.379q5.728-.017,11.455,0a6.089,6.089,0,0,0,1.107-.1,1.63,1.63,0,0,1,.874-.088,7.715,7.715,0,0,0,2.181.425,4.181,4.181,0,0,0,4.575-3.193,1.548,1.548,0,0,1,.151-.546v-1.754A.157.157,0,0,1,595.743,225.645Zm-2.586,2.206a1.6,1.6,0,0,1-1.651,1.21,10.109,10.109,0,0,1-1.334-.095c-.236-.029-.338-.11-.326-.381.024-.594.007-1.189.007-1.784,0-.508,0-1.016,0-1.525,0-.14,0-.282-.014-.421s-.116-.346-.057-.415a1.006,1.006,0,0,1,.515-.223,4.566,4.566,0,0,1,1.389-.147,1.462,1.462,0,0,1,1.5,1.163A4.455,4.455,0,0,1,593.156,227.851Z" transform="translate(-509.456 -221.9)" fill="#404553"/>
    <path id="Path_837" data-name="Path 837" d="M784.063,484.43c-.1-.038-.055-.128-.066-.2a2.475,2.475,0,0,0-1.73-2.083,5.011,5.011,0,0,0-1.407-.247,12.045,12.045,0,0,0-4.175.764c-.123.038-.141.093-.123.209.086.554.165,1.11.25,1.691.123-.04.233-.074.341-.112a9.575,9.575,0,0,1,3.08-.6c1.025-.012,1.435.429,1.405,1.463,0,.168-.043.223-.213.22-.467-.011-.936-.008-1.4,0a6.507,6.507,0,0,0-2.1.31,2.531,2.531,0,0,0,.151,4.824,6.054,6.054,0,0,0,2.9-.039,2.594,2.594,0,0,1,1.067-.008c.583.115,1.17.211,1.755.315.276.084.234-.116.234-.274q0-2.78,0-5.56a.668.668,0,0,1,.031-.348Zm-2.395,2.86c-.014.226,0,.454,0,.682,0,.885,0,.885-.88,1.078a2.775,2.775,0,0,1-1.354.064.913.913,0,0,1-.724-.839,1.023,1.023,0,0,1,.546-1.047,1.883,1.883,0,0,1,.837-.165c.447-.009.893,0,1.339-.01C781.606,487.049,781.68,487.1,781.669,487.29Z" transform="translate(-697.743 -465.007)" fill="#404553"/>
    <path id="Path_838" data-name="Path 838" d="M894.81,532.072c.225,0,.2-.155.2-.309q0-2.252,0-4.5c0-.357,0-.713,0-1.069,0-.1-.046-.219.061-.3v6.236A.347.347,0,0,1,894.81,532.072Z" transform="translate(-818.495 -506.132)" fill="#404553"/>
    <path id="Path_839" data-name="Path 839" d="M820.128,221.89c-.043.069-.085.086-.128,0Z" transform="translate(-748.46 -221.88)" fill="#404553"/>
    <path id="Path_840" data-name="Path 840" d="M277.524,233.613c-1.85,0-3.7.029-5.551-.008a3.676,3.676,0,0,1-3.82-3.729,9.663,9.663,0,0,1,.2-3.351,3.772,3.772,0,0,1,3.674-2.856c1.052-.019,2.106,0,3.159-.011.192,0,.255.025.212.247-.091.466-.155.939-.206,1.411-.021.189-.1.225-.261.223-.628-.008-1.255,0-1.883,0a1.937,1.937,0,0,0-2.234,1.879,7.878,7.878,0,0,0,.017,2.81,1.728,1.728,0,0,0,1.679,1.5c1.019.085,2.041.028,3.061.035,2.3.015,4.594.011,6.891.013a2.588,2.588,0,0,0,.444-.029,1.191,1.191,0,0,0,1.065-1.336,1.177,1.177,0,0,0-1.248-1.119c-.968-.018-1.936.041-2.9-.036a2.52,2.52,0,0,1-2.537-2.231,2.742,2.742,0,0,1,1.921-3.232,6.328,6.328,0,0,1,2.012-.278c1.766,0,3.531.006,5.3-.006.264,0,.293.075.246.312-.082.413-.138.832-.184,1.25-.027.244-.107.333-.373.33-1.637-.016-3.275-.01-4.913-.006a3.645,3.645,0,0,0-.729.052.979.979,0,0,0-.841,1.144,1.022,1.022,0,0,0,1.024,1.032c.765.023,1.532.013,2.3.01a5.1,5.1,0,0,1,1.328.133,2.75,2.75,0,0,1,2.075,2.767,4.324,4.324,0,0,1-.135,1.091,2.537,2.537,0,0,1-2.1,1.842,8.341,8.341,0,0,1-1.9.167c-1.6,0-3.191,0-4.785,0A.238.238,0,0,1,277.524,233.613Z" transform="translate(-222.041 -223.405)" fill="#404553"/>
    <path id="Path_841" data-name="Path 841" d="M268.245,487.151c0-1.071,0-2.143,0-3.214a1.314,1.314,0,0,1,1.089-1.524,7.893,7.893,0,0,1,4.3-.263,1.97,1.97,0,0,1,.751.34.341.341,0,0,0,.4.026,5.864,5.864,0,0,1,3.861-.368,2.408,2.408,0,0,1,1.89,2.285c.1,1.232.029,2.466.044,3.7.01.8-.007,1.6.008,2.4,0,.234-.087.26-.277.257-.659-.01-1.318-.014-1.977,0-.229.006-.279-.068-.278-.291.009-1.677.006-3.355,0-5.032a4.283,4.283,0,0,0-.017-.486.933.933,0,0,0-.869-.884,2.848,2.848,0,0,0-1.462.242c-.105.047-.19.069-.117.227a1.575,1.575,0,0,1,.093.669c0,1.753-.006,3.506.006,5.26,0,.252-.071.3-.3.295q-.973-.024-1.945,0c-.222.005-.282-.055-.281-.284.01-1.656-.013-3.312.011-4.968.018-1.246-.5-1.623-1.714-1.394-.665.125-.663.138-.663.8,0,1.84-.005,3.68.006,5.52,0,.259-.072.325-.318.318q-.988-.026-1.977,0c-.232.006-.28-.074-.277-.294C268.251,489.38,268.245,488.265,268.245,487.151Z" transform="translate(-222.171 -465.065)" fill="#404553"/>
    <path id="Path_842" data-name="Path 842" d="M635.607,422.649c0-.218-.021-.3-.274-.247-.665.137-1.337.243-2.008.348-.2.032-.277.11-.274.331.012,1.093,0,2.186.012,3.279,0,.262-.082.278-.285.209a4.648,4.648,0,0,0-1.883-.249,3.231,3.231,0,0,0-2.954,2.013,6.562,6.562,0,0,0-.392,3.186,3.656,3.656,0,0,0,2.78,3.468,7.671,7.671,0,0,0,4.121-.193c.937-.284,1.154-.6,1.154-1.591q0-2.549,0-5.1C635.6,426.286,635.6,424.468,635.607,422.649Zm-2.765,10.505a7.014,7.014,0,0,1-.947.119,1.638,1.638,0,0,1-1.721-1.3,4.768,4.768,0,0,1-.006-2.5,1.508,1.508,0,0,1,1.605-1.2,4.95,4.95,0,0,1,1.125.211c.175.046.159.17.159.3q0,1.024,0,2.046c0,.682,0,1.364,0,2.046C633.06,433.042,633.031,433.129,632.843,433.155Z" transform="translate(-558.512 -409.363)" fill="#404553"/>
    <path id="Path_843" data-name="Path 843" d="M491.118,487.725h-.005c0-1,.018-1.991,0-2.986a2.539,2.539,0,0,0-1.539-2.5,4.609,4.609,0,0,0-1.647-.331,12.073,12.073,0,0,0-4.144.759c-.145.045-.147.116-.13.236.071.481.147.961.2,1.444.022.2.077.225.257.161a9.951,9.951,0,0,1,1.775-.5,5.46,5.46,0,0,1,1.962-.095,1.2,1.2,0,0,1,.863,1.533c-.04.132-.129.087-.2.088-.382,0-.765,0-1.148,0a7.007,7.007,0,0,0-2.387.319,2.531,2.531,0,0,0,.164,4.814,6.434,6.434,0,0,0,2.935-.032,1.68,1.68,0,0,1,.657-.082c.7.135,1.4.247,2.1.4.244.053.306.021.3-.242C491.109,489.715,491.118,488.72,491.118,487.725Zm-3.132,1.3a3.014,3.014,0,0,1-1.447.1.92.92,0,0,1-.766-.871,1.013,1.013,0,0,1,.656-1.072,3.957,3.957,0,0,1,1.323-.125c.294.033.717-.141.918.071.185.194.052.618.058.941C488.743,488.846,488.741,488.853,487.986,489.024Z" transform="translate(-423.505 -465.008)" fill="#404553"/>
  </g>
</svg>
