<svg xmlns="http://www.w3.org/2000/svg" width="102.01" height="72.521" viewBox="0 0 102.01 72.521">
  <g id="mailss" transform="translate(0 -4.482)">
    <g id="Group_1289" data-name="Group 1289" transform="translate(17.768 39.446)">
      <path id="Path_5802" data-name="Path 5802" d="M39.426,36.159a1.629,1.629,0,0,1-1.125-.447L19.374,17.955a1.644,1.644,0,1,1,2.253-2.395L40.554,33.317a1.645,1.645,0,0,1-1.128,2.842Z" transform="translate(25.4 -15.111)" fill="rgba(64,69,83,0.16)"/>
      <path id="Path_5803" data-name="Path 5803" d="M7.048,36.156A1.645,1.645,0,0,1,5.92,33.314L24.853,15.558a1.644,1.644,0,1,1,2.253,2.395L8.173,35.709A1.629,1.629,0,0,1,7.048,36.156Z" transform="translate(-5.402 -15.109)" fill="rgba(64,69,83,0.16)"/>
    </g>
    <path id="Path_5804" data-name="Path 5804" d="M93.787,77H8.223A8.233,8.233,0,0,1,0,68.779V12.705A8.233,8.233,0,0,1,8.223,4.482H93.787a8.233,8.233,0,0,1,8.223,8.223V68.779A8.233,8.233,0,0,1,93.787,77ZM8.223,7.771a4.94,4.94,0,0,0-4.934,4.934V68.779a4.94,4.94,0,0,0,4.934,4.934H93.787a4.94,4.94,0,0,0,4.934-4.934V12.705a4.94,4.94,0,0,0-4.934-4.934Z" transform="translate(0 0)" fill="rgba(64,69,83,0.16)"/>
    <path id="Path_5805" data-name="Path 5805" d="M49.5,47.183a9.2,9.2,0,0,1-6.039-2.178L1.223,8.161a1.645,1.645,0,1,1,2.161-2.48L45.619,42.522a6.155,6.155,0,0,0,7.753,0L95.555,5.74A1.646,1.646,0,0,1,97.72,8.22L55.537,45A9.19,9.19,0,0,1,49.5,47.183Z" transform="translate(1.507 1.824)" fill="rgba(64,69,83,0.16)"/>
  </g>
</svg>
