<svg xmlns="http://www.w3.org/2000/svg" width="30" height="30" viewBox="0 0 30 30">
  <g id="museum" transform="translate(0 0)">
    <path id="Path_5758" data-name="Path 5758" d="M.652,8.288a1.19,1.19,0,0,0-.019.179V9.7a1.225,1.225,0,0,0,.81,1.142v1.816A1.152,1.152,0,0,0,2.552,13.8V24.287a1.152,1.152,0,0,0-1.11,1.136v1.811a1.238,1.238,0,0,0-.81,1.153v1.207A.412.412,0,0,0,1.049,30H29.11a.412.412,0,0,0,.416-.408V28.386a1.238,1.238,0,0,0-.81-1.153V25.412a1.152,1.152,0,0,0-1.11-1.136V13.8a1.152,1.152,0,0,0,1.11-1.136V10.843a1.225,1.225,0,0,0,.81-1.142V8.476a1.161,1.161,0,0,0-.019-.179.417.417,0,0,0,.547-.207.4.4,0,0,0-.211-.536L15.271.048a.424.424,0,0,0-.388,0L.311,7.546A.4.4,0,0,0,.137,8.1.42.42,0,0,0,.652,8.288ZM2.275,11.55v-.628h4.8v.623ZM12.96,13.8V24.287a1.152,1.152,0,0,0-1.11,1.136v1.734H7.9V25.423a1.152,1.152,0,0,0-1.11-1.136V13.8A1.152,1.152,0,0,0,7.9,12.659V10.922h3.945v1.735a1.153,1.153,0,0,0,1.11,1.139Zm-.277-2.248v-.628h4.8v.623ZM23.368,13.8V24.287a1.153,1.153,0,0,0-1.11,1.136v1.734h-3.95V25.423a1.153,1.153,0,0,0-1.11-1.136V13.8a1.152,1.152,0,0,0,1.11-1.136V10.922h3.945v1.735a1.152,1.152,0,0,0,1.11,1.139Zm-.277-2.248v-.628h4.8v.623Zm4.8,14.985v.622h-4.8v-.622Zm-10.408,0v.622h-4.8v-.622ZM13.371,12.988H13.01a.329.329,0,0,1-.333-.326v-.3h4.8v.3a.329.329,0,0,1-.333.326Zm3,.816V24.281H13.787V13.8Zm-3,11.293h3.773a.329.329,0,0,1,.333.326v.3h-4.8v-.3a.329.329,0,0,1,.333-.326Zm-6.3,1.438v.622h-4.8v-.622ZM2.269,12.67v-.3h4.8v.3a.329.329,0,0,1-.333.326H2.594a.329.329,0,0,1-.325-.329Zm3.689,1.142V24.281H3.379V13.8ZM2.269,25.431A.329.329,0,0,1,2.6,25.1H6.735a.33.33,0,0,1,.333.326v.3h-4.8ZM28.694,28.4v.8H1.459v-.8a.426.426,0,0,1,.43-.422H28.264a.426.426,0,0,1,.43.413Zm-.81-2.971v.3h-4.8v-.3a.329.329,0,0,1,.333-.326h4.142a.33.33,0,0,1,.325.318Zm-3.689-1.142V13.8h2.583V24.281ZM27.884,12.67a.329.329,0,0,1-.333.326H23.421a.329.329,0,0,1-.333-.326v-.3h4.8ZM15.077.864,27.468,7.247H2.685ZM1.459,8.476a.412.412,0,0,1,.416-.408h26.4a.412.412,0,0,1,.416.408V9.71a.412.412,0,0,1-.416.408H1.875a.412.412,0,0,1-.416-.408Zm0,0" transform="translate(-0.089 -0.001)" fill="#404553"/>
  </g>
</svg>
