<svg xmlns="http://www.w3.org/2000/svg" width="14" height="13.334" viewBox="0 0 14 13.334">
  <g id="profile" transform="translate(0 -13.414)">
    <path id="Path_1035" data-name="Path 1035" d="M133.734,20.9a3.741,3.741,0,1,0-3.747-3.747A3.748,3.748,0,0,0,133.734,20.9Zm0-6.506a2.759,2.759,0,1,1-2.759,2.759A2.767,2.767,0,0,1,133.734,14.392Z" transform="translate(-126.757 0)" fill="#404553"/>
    <path id="Path_1036" data-name="Path 1036" d="M.494,346.121H13.506a.491.491,0,0,0,.494-.494,4.707,4.707,0,0,0-4.7-4.7H4.7a4.707,4.707,0,0,0-4.7,4.7A.491.491,0,0,0,.494,346.121ZM4.7,341.914H9.3a3.71,3.71,0,0,1,3.678,3.218H1.023A3.72,3.72,0,0,1,4.7,341.914Z" transform="translate(0 -319.373)" fill="#404553"/>
  </g>
</svg>
