<svg xmlns="http://www.w3.org/2000/svg" width="27.087" height="35" viewBox="0 0 27.087 35">
  <g id="st1" transform="translate(-62.088 -10)">
    <g id="Group_1036" data-name="Group 1036" transform="translate(62.088 10)">
      <path id="Path_902" data-name="Path 902" d="M81.7,14.831a5.731,5.731,0,0,0,.35-1.84c0-2.826-2.223-4.254-4.8-5.91-.893-.574-1.817-1.168-2.764-1.878C70.334,2.09,70.2.02,70.2,0L69.82.008,69.067,0c0,.02-.137,2.09-4.289,5.2-.947.71-1.871,1.3-2.764,1.878-2.575,1.655-4.8,3.083-4.8,5.909a5.731,5.731,0,0,0,.35,1.84,2.252,2.252,0,0,0,.778,4.368h.564V35H80.354V19.2h.564a2.252,2.252,0,0,0,.778-4.368Zm-19.072-6.8c.868-.558,1.852-1.19,2.831-1.925a14.39,14.39,0,0,0,4.176-4.392,14.4,14.4,0,0,0,4.176,4.392c.979.735,1.963,1.367,2.831,1.925,2.484,1.6,4.279,2.75,4.279,4.96a4.872,4.872,0,0,1-.371,1.693H58.716a4.872,4.872,0,0,1-.371-1.693C58.345,10.782,60.14,9.629,62.624,8.032ZM76.968,33.871H62.3V28.793a7.336,7.336,0,1,1,14.672,0Zm3.95-15.8H78.1V19.2h1.129V33.871H78.1V28.793a8.465,8.465,0,0,0-16.929,0v5.079H60.038V19.2H76.968V18.071H58.345a1.129,1.129,0,0,1,0-2.257H80.918a1.129,1.129,0,1,1,0,2.257Z" transform="translate(-56.088)" fill="#404553"/>
      <path id="Path_903" data-name="Path 903" d="M108.46,116.476c.439-.282.906-.582,1.39-.906l-.628-.938c-.477.319-.939.617-1.372.9-2.541,1.632-3.762,2.485-3.762,4.011h1.129C105.217,118.7,105.986,118.065,108.46,116.476Z" transform="translate(-100.702 -106.546)" fill="#404553"/>
      <path id="Path_904" data-name="Path 904" d="M188.651,100.279l-.677-.9q-.4.3-.8.578l.648.924Q188.234,100.591,188.651,100.279Z" transform="translate(-177.929 -92.366)" fill="#404553"/>
      <path id="Path_905" data-name="Path 905" d="M185.666,324.411a.806.806,0,0,0-.9.351,2.226,2.226,0,0,1-2.311,1.016,2.261,2.261,0,0,1-1.808-1.808,2.225,2.225,0,0,1,1.016-2.31.807.807,0,0,0,.351-.905.794.794,0,0,0-.756-.583,4.888,4.888,0,0,0-1.9.347,5.073,5.073,0,0,0,1.816,9.81,5.23,5.23,0,0,0,.693-.046,5.079,5.079,0,0,0,4.038-3.217,4.96,4.96,0,0,0,.347-1.9A.794.794,0,0,0,185.666,324.411Zm-.815,2.244a4,4,0,0,1-3.136,2.509,3.953,3.953,0,0,1-4.458-4.457,4.021,4.021,0,0,1,2.991-3.291,3.379,3.379,0,0,0,4.757,4.757A3.993,3.993,0,0,1,184.851,326.654Z" transform="translate(-167.627 -297.586)" fill="#404553"/>
    </g>
  </g>
</svg>
