<svg xmlns="http://www.w3.org/2000/svg" width="38.889" height="35" viewBox="0 0 38.889 35">
  <path id="st2" d="M38.882,14.667c-.064-1.109-1.383-1.976-4.021-2.637A1.461,1.461,0,0,0,35,11.423V6.889h-.011C34.757,3.111,19.278,3,17.5,3S.243,3.111.011,6.889H0v.084H0v4.452c0,1.231,1.592,2.2,3.957,2.913a1.422,1.422,0,0,0-.058.329h-.01v.084h0V19.2c-2.547.656-3.82,1.51-3.882,2.6H0v.084H0v4.452c0,.857.775,1.585,2.04,2.191a1.428,1.428,0,0,0-.086.4h-.01v.084h0v4.452C1.95,35.619,6.8,36.957,12.2,37.582a.6.6,0,0,0,.118.024c.012,0,.023-.006.035-.007,1.04.117,2.1.209,3.142.274a.535.535,0,0,0,.064.013c.012,0,.022-.006.034-.007,1.327.08,2.633.121,3.855.121s2.528-.041,3.855-.122c.012,0,.022.007.034.007s.042-.011.064-.013c1.045-.065,2.1-.156,3.142-.274.012,0,.023.006.035.006a.6.6,0,0,0,.118-.024c5.393-.625,10.247-1.964,10.252-4.12V28.926h-.01c-.045-.795-.723-1.458-2.06-2.012A1.449,1.449,0,0,0,35,26.331V22.094c2.327-.716,3.886-1.673,3.889-2.893V14.667ZM33.634,26.541l-.221.194a5.8,5.8,0,0,1-1.653.894v-3.09a9.646,9.646,0,0,0,1.944-.892v2.682A.412.412,0,0,1,33.634,26.541Zm-14.5,3.012-.285.006c-.231,0-.469.006-.7.008V26.329l.535-.008.1,0q.979-.018,1.955-.062v3.236l-.419.019C19.933,29.531,19.538,29.544,19.137,29.553Zm-2.83.009q-.445-.008-.886-.021l-.109,0q-.53-.018-1.052-.043V26.258q.974.046,1.955.062l.1,0,.535.008V29.57l-.377,0ZM4.6,28.085l-.063-.018V24.935c.605.163,1.256.312,1.944.448v3.164q-.892-.19-1.644-.4C4.759,28.129,4.677,28.107,4.6,28.085Zm13.662,5.367.535.008V36.7q-1.344-.013-2.593-.075V33.388q.974.046,1.955.062Zm2.469,0q.979-.018,1.955-.062v3.236q-1.248.061-2.593.075v-3.24l.535-.008Zm5.2-.293v3.219q-.934.1-1.944.17V33.314C24.639,33.271,25.288,33.219,25.926,33.157Zm1.3-.14q1-.121,1.944-.274v3.182q-.916.161-1.944.3Zm3.241-.5c.688-.135,1.339-.285,1.944-.448V35.2c-.577.167-1.228.328-1.944.48Zm-22.037,0v3.164c-.717-.152-1.367-.314-1.944-.48V32.064C7.087,32.228,7.738,32.377,8.426,32.512Zm1.3.232q.941.153,1.944.274v3.206q-1.028-.135-1.944-.3Zm3.241.413c.638.062,1.287.114,1.944.158v3.232q-1.01-.071-1.944-.17Zm-1.608-3.876-.2-.02-.139-.015V26.028c.638.062,1.287.114,1.944.157v3.23C12.419,29.376,11.881,29.332,11.355,29.281ZM9.722,25.887v3.206q-1.028-.135-1.944-.3V25.614Q8.719,25.767,9.722,25.887Zm12.746,3.5-.432.032V26.185c.657-.043,1.307-.1,1.944-.158v3.219c-.4.042-.81.082-1.231.116Zm2.809-.292V25.887q1-.121,1.944-.274V28.8Q26.306,28.958,25.278,29.093Zm3.241-3.711c.688-.135,1.339-.285,1.944-.448v3.131c-.577.167-1.228.328-1.944.48Zm-8.863-2.961c-.487-.012-.964-.031-1.432-.054l-.075,0V19.129q.974.046,1.955.062l.1,0,.535.008v3.236c-.316,0-.634,0-.942-.012ZM4.537,13.159V10.028c.605.163,1.256.312,1.944.448v3.164l-.24-.051c-.345-.076-.681-.155-1-.239C4.994,13.287,4.761,13.223,4.537,13.159Zm11.78-1.744.535.008v3.236c-.872-.008-1.74-.031-2.593-.074V11.351q.974.046,1.955.062Zm2.469,0q.979-.018,1.955-.062v3.234l-.327.018h-.028c-.435.019-.878.034-1.327.044l-.21,0c-.231,0-.467.005-.7.008V11.423l.535-.008Zm14.769.325-.018,0-.236.183a6.3,6.3,0,0,1-1.542.8V9.631A9.646,9.646,0,0,0,33.7,8.739v2.682A.509.509,0,0,1,33.555,11.738Zm-8.278,2.444v-3.2q1-.121,1.944-.274v3.177C26.608,13.993,25.961,14.092,25.278,14.182Zm3.241-.548V10.476c.688-.135,1.339-.285,1.944-.448v3.124C29.882,13.321,29.228,13.483,28.519,13.634ZM23.981,11.12v3.215q-.939.1-1.944.172V11.277C22.694,11.234,23.344,11.182,23.981,11.12ZM11.019,14.336V11.12c.638.062,1.287.114,1.944.158V14.5C12.3,14.457,11.652,14.4,11.019,14.336Zm-1.3-3.356v3.2c-.128-.017-.262-.03-.389-.048L9.09,14.1q-.562-.081-1.1-.172l-.212-.038V10.707Q8.719,10.859,9.722,10.98Zm6.969,11.3-.263-.019q-.622-.049-1.215-.108l-.254-.026-.052-.006V18.9c.638.062,1.287.114,1.944.158v3.23Zm-4.282-.484c-.257-.041-.5-.085-.742-.128V18.485q.941.153,1.944.274v3.206c-.4-.052-.785-.107-1.158-.165ZM10.37,18.253v3.158q-1.074-.23-1.944-.487v-3.12C9.031,17.968,9.682,18.118,10.37,18.253ZM7.13,17.409v3.079a4.044,4.044,0,0,1-1.89-1.153L5.2,19.263a.409.409,0,0,1-.011-.062V16.517A9.645,9.645,0,0,0,7.13,17.409Zm15.545,1.782q.979-.018,1.955-.062v3.233c-.852.042-1.718.065-2.593.075V19.2l.535-.008Zm8.376,2.487c-.285.049-.572.1-.867.143-.169.026-.342.051-.516.075s-.334.043-.5.065v-3.2q1-.121,1.944-.274v3.182Zm-4.389.554c-.242.02-.491.033-.736.051V19.055c.657-.043,1.307-.1,1.944-.158v3.215c-.377.04-.752.079-1.139.111Zm7.407-1.215c-.323.09-.664.174-1.013.257-.161.038-.326.075-.495.111l-.154.032V18.254c.688-.135,1.339-.285,1.944-.448v3.131Zm3.516-6.307c-.06.44-1.057,1.025-2.838,1.576h0a43.505,43.505,0,0,1-10.429,1.558c-.233.01-.465.019-.7.027l-.586.018c-.537.012-1.081.02-1.642.02s-1.106-.008-1.642-.021c-.2,0-.391-.011-.586-.017-.238-.007-.47-.017-.7-.027A43.5,43.5,0,0,1,8.03,16.284h0c-1.766-.546-2.762-1.126-2.836-1.565a.152.152,0,0,1,.011-.038c.044.011.093.02.138.031.253.06.513.119.778.174,1.288.277,2.715.5,4.236.679l.014,0h0c1.036.118,2.11.211,3.214.276.008,0,.016,0,.024,0l.012,0q1.191.07,2.412.1c.5.012.988.019,1.464.019.34,0,.689,0,1.041-.01a49.633,49.633,0,0,0,12.111-1.5c.14-.04.277-.08.412-.121l.246-.075c.235-.075.46-.152.677-.233l.111-.043c.183-.069.36-.141.528-.215l.146-.064c.18-.081.353-.164.514-.25.073-.038.135-.078.2-.117s.156-.09.228-.136c.041-.026.089-.051.128-.076C36.747,13.752,37.512,14.44,37.585,14.709ZM17.5,4.3c10.687,0,16.093,1.683,16.194,2.648-.078.438-1.073,1.017-2.835,1.561h0A43.505,43.505,0,0,1,20.43,10.064c-.233.01-.465.019-.7.027l-.586.018c-.537.012-1.081.021-1.642.021s-1.106-.008-1.642-.021c-.2,0-.391-.011-.586-.018-.238-.007-.47-.017-.7-.027A43.5,43.5,0,0,1,4.141,8.506h0C2.379,7.962,1.384,7.383,1.306,6.945,1.407,5.979,6.813,4.3,17.5,4.3ZM1.3,11.423V8.739a9.645,9.645,0,0,0,1.944.892v3.1C1.98,12.262,1.3,11.788,1.3,11.423Zm3.14,8.97c.01.01.025.019.034.03.887.9,2.725,1.6,5.012,2.125l.161.036q.252.056.511.11a49.987,49.987,0,0,0,7.34.931H17.5q1.316.077,2.692.1c.406.008.8.014,1.2.014.447,0,.906-.005,1.373-.016.848-.017,1.683-.053,2.507-.1l.009,0c.006,0,.01,0,.016,0a50.129,50.129,0,0,0,7.482-.958,11.742,11.742,0,0,1-1.917.749h0A44.726,44.726,0,0,1,19.658,25l-.437.014-.482.01c-.408.006-.818.012-1.239.012-.561,0-1.106-.008-1.642-.021-.2,0-.391-.011-.586-.017-.238-.007-.47-.018-.7-.027A43.5,43.5,0,0,1,4.141,23.413h0c-1.782-.551-2.78-1.137-2.838-1.577C1.375,21.593,2.031,20.983,4.436,20.393ZM1.3,26.331V23.647a9.645,9.645,0,0,0,1.944.892V27.63l-.37-.144-.008.008C1.845,27.072,1.3,26.657,1.3,26.331Zm1.944,7.13V30.776a9.645,9.645,0,0,0,1.944.892v3.1C3.925,34.3,3.242,33.825,3.241,33.46ZM33.7,34.772v-3.1a9.646,9.646,0,0,0,1.944-.892v2.682C35.647,33.824,34.964,34.3,33.7,34.772Zm1.936-5.8c-.071.439-1.066,1.021-2.836,1.568h0A43.505,43.505,0,0,1,22.375,32.1c-.233.01-.465.019-.7.027l-.586.017c-.537.012-1.081.02-1.642.02s-1.106-.008-1.644-.021c-.2,0-.388-.011-.58-.017-.239-.008-.472-.018-.706-.027A43.506,43.506,0,0,1,6.085,30.543h0c-1.714-.53-2.7-1.092-2.829-1.526.193.067.393.133.6.2l.062.019q.262.081.537.156l.21.058c.1.028.21.054.316.082a47.285,47.285,0,0,0,8.627,1.226h.005c1,.06,2.031.1,3.068.109.276.005.55.008.819.008.357,0,.723,0,1.093-.011.946-.016,1.879-.051,2.792-.1h.005l.008,0c1.112-.067,2.188-.162,3.221-.281l.011,0c.014,0,.026-.007.04-.008,1.151-.133,2.243-.3,3.256-.486.209-.038.414-.078.618-.119l.136-.028A17.416,17.416,0,0,0,33.387,28.3c.062-.034.121-.069.18-.1s.141-.086.207-.13.134-.079.191-.12C35.245,28.4,35.6,28.813,35.64,28.976Zm.008-8.464v-3.1a9.645,9.645,0,0,0,1.944-.892V19.2C37.592,19.565,36.909,20.039,35.648,20.512Z" transform="translate(0 -3)" fill="#404553"/>
</svg>
