<svg xmlns="http://www.w3.org/2000/svg" width="59.957" height="35" viewBox="0 0 59.957 35">
  <g id="st3" transform="translate(-16.005 -177.129)">
    <g id="Group_1017" data-name="Group 1017" transform="translate(16.005 192.869)">
      <g id="Group_1016" data-name="Group 1016" transform="translate(0 0)">
        <path id="Path_891" data-name="Path 891" d="M66.7,268.65H58.991a9.213,9.213,0,0,0-4.547,1.2,9.378,9.378,0,0,0-2.992,2.69,9.244,9.244,0,0,0-1.6-.138H42.138a9.232,9.232,0,0,0-1.6.138,9.371,9.371,0,0,0-2.992-2.69A9.213,9.213,0,0,0,33,268.65H25.292a9.307,9.307,0,0,0-9.287,9.287v5.235a1,1,0,0,0,1,.991H32.824v2.752a1,1,0,0,0,1,1H58.145a1,1,0,0,0,1-1v-2.752H74.964a1,1,0,0,0,1-1v-5.228A9.307,9.307,0,0,0,66.7,268.65ZM32.927,280.791v1.376H18v-4.23a7.312,7.312,0,0,1,7.292-7.292H33a7.223,7.223,0,0,1,3.563.936,7.41,7.41,0,0,1,1.933,1.575A9.335,9.335,0,0,0,32.927,280.791Zm24.2.894v4.237H34.846v-5.8l.041-.165.069-.248.048-.165a7.333,7.333,0,0,1,6.934-5.035l.2-.11h7.718a7.319,7.319,0,0,1,7.23,6.363,1.693,1.693,0,0,0,.041.454Zm16.867.488H59.136v-2.889l-.048-.172v-.337l-.1-.268a9.362,9.362,0,0,0-5.063-5.3,7.408,7.408,0,0,1,1.493-1.623,7.223,7.223,0,0,1,3.563-.936H66.7a7.312,7.312,0,0,1,7.292,7.292Z" transform="translate(-16.005 -268.65)" fill="#404553"/>
      </g>
    </g>
    <g id="Group_1021" data-name="Group 1021" transform="translate(22.114 177.137)">
      <g id="Group_1020" data-name="Group 1020" transform="translate(0 0)">
        <path id="Path_892" data-name="Path 892" d="M63.525,179.234a7.023,7.023,0,1,0,2.051,4.966A7,7,0,0,0,63.525,179.234Zm-1.41,8.509a5.029,5.029,0,1,1,1.472-3.556A5.029,5.029,0,0,1,62.115,187.743Z" transform="translate(-51.529 -177.17)" fill="#404553"/>
      </g>
    </g>
    <g id="Group_1027" data-name="Group 1027" transform="translate(55.827 177.13)">
      <g id="Group_1026" data-name="Group 1026" transform="translate(0 0)">
        <path id="Path_894" data-name="Path 894" d="M254.592,177.13a7.023,7.023,0,1,0,7.017,7.03A7.023,7.023,0,0,0,254.592,177.13Zm3.551,10.577a5.029,5.029,0,1,1,0-7.111A5.029,5.029,0,0,1,258.142,187.707Z" transform="translate(-247.562 -177.13)" fill="#404553"/>
      </g>
    </g>
    <g id="Group_1031" data-name="Group 1031" transform="translate(38.984 180.879)">
      <g id="Group_1030" data-name="Group 1030">
        <path id="Path_895" data-name="Path 895" d="M161.594,200.976a7.017,7.017,0,1,0,.017,9.923A7.017,7.017,0,0,0,161.594,200.976Zm-4.958,10.011a5.029,5.029,0,1,1,5.03-5.027A5.029,5.029,0,0,1,156.637,210.987Z" transform="translate(-149.625 -198.93)" fill="#404553"/>
      </g>
    </g>
  </g>
</svg>
