<svg id="st5" xmlns="http://www.w3.org/2000/svg" width="35" height="35" viewBox="0 0 35 35">
  <g id="Group_1033" data-name="Group 1033">
    <g id="Group_1032" data-name="Group 1032">
      <path id="Path_896" data-name="Path 896" d="M29.874,12.374V5.126H22.626L17.5,0,12.374,5.126H5.126v7.249L0,17.5l5.126,5.126v7.249h7.249L17.5,35l5.126-5.126h7.249V22.626L35,17.5Zm-2.051,9.4v6.047H21.776L17.5,32.1l-4.276-4.276H7.177V21.776L2.9,17.5l4.276-4.276V7.177h6.047L17.5,2.9l4.276,4.276h6.047v6.047L32.1,17.5Z" fill="#404553"/>
    </g>
  </g>
  <g id="Group_1035" data-name="Group 1035" transform="translate(5.802 5.802)">
    <g id="Group_1034" data-name="Group 1034">
      <path id="Path_897" data-name="Path 897" d="M104.848,93.151V88.305H100l-3.426-3.426-3.426,3.426H88.305v4.845l-3.426,3.426L88.305,100v4.845h4.845l3.426,3.426L100,104.848h4.845V100l3.426-3.426Zm-2.051,6V102.8H99.153l-2.576,2.576L94,102.8H90.357V99.153L87.78,96.577,90.357,94V90.357H94l2.576-2.576,2.576,2.576H102.8V94l2.576,2.576Z" transform="translate(-84.879 -84.879)" fill="#404553"/>
    </g>
  </g>
</svg>
