<svg xmlns="http://www.w3.org/2000/svg" width="26.257" height="20.607" viewBox="0 0 26.257 20.607">
  <g id="add-to-the-cart" transform="translate(0 -0.001)">
    <path id="Path_871" data-name="Path 871" d="M25.552,37.98H22.717A2.036,2.036,0,0,0,20.84,39.4L19.67,43.544a1.569,1.569,0,0,0-.422-.059H9.391A4.753,4.753,0,1,0,4.1,49.233a.715.715,0,0,0,0,.094l.246,2.491a1.76,1.76,0,0,0,1.736,1.573H16.951a2.017,2.017,0,0,0,1.869-1.43l1.359-5.026h0l2.02-7.15a.623.623,0,0,1,.518-.392h2.834a.706.706,0,0,0,0-1.412ZM1.412,44.526a3.342,3.342,0,1,1,3.342,3.341A3.345,3.345,0,0,1,1.412,44.526Zm16.045,7.066a.605.605,0,0,1-.506.387H6.082a.359.359,0,0,1-.331-.3l-.243-2.46A4.761,4.761,0,0,0,9.491,44.9h9.775c0,.005,0,.011,0,.018Z" transform="translate(0 -37.98)" fill="#404553"/>
    <path id="Path_872" data-name="Path 872" d="M65.372,210.236a2.2,2.2,0,1,0,2.2,2.2A2.2,2.2,0,0,0,65.372,210.236Zm0,2.98a.784.784,0,1,1,.784-.784A.785.785,0,0,1,65.372,213.216Z" transform="translate(-57.229 -194.021)" fill="#404553"/>
    <path id="Path_873" data-name="Path 873" d="M139.34,210.236a2.2,2.2,0,1,0,2.2,2.2A2.2,2.2,0,0,0,139.34,210.236Zm0,2.98a.784.784,0,1,1,.784-.784A.785.785,0,0,1,139.34,213.216Z" transform="translate(-124.234 -194.021)" fill="#404553"/>
    <path id="Path_874" data-name="Path 874" d="M27.582,85.643V84.6h1.043a.706.706,0,1,0,0-1.412H27.582V82.146a.706.706,0,1,0-1.412,0v1.043H25.127a.706.706,0,0,0,0,1.412H26.17v1.043a.706.706,0,0,0,1.412,0Z" transform="translate(-22.122 -77.349)" fill="#404553"/>
  </g>
</svg>
