<svg xmlns="http://www.w3.org/2000/svg" width="14" height="14" viewBox="0 0 14 14">
  <g id="address-icon" transform="translate(-623.002 -108)">
    <path id="address" d="M5.592,12.57v1.421l-.343-.278a23.01,23.01,0,0,1-2.592-2.54C.894,9.144,0,7.323,0,5.759V5.6a5.592,5.592,0,1,1,11.184,0v.155c0,.131-.007.265-.02.4l-1.094-1A4.5,4.5,0,0,0,1.091,5.6v.155c0,2.641,3.4,5.839,4.5,6.81Zm3.355-.786h1.637V10.144H8.947ZM5.592,3.28A2.324,2.324,0,1,1,3.273,5.6,2.324,2.324,0,0,1,5.592,3.28Zm0,1.094A1.23,1.23,0,1,0,6.819,5.6,1.23,1.23,0,0,0,5.592,4.374Zm7.673,6.667-.307-.281v1.756A1.483,1.483,0,0,1,11.479,14H8.024a1.483,1.483,0,0,1-1.479-1.483V10.76l-.307.281L5.5,10.233,9.751,6.348,14,10.233Zm-1.4-1.278L9.751,7.828,7.636,9.763v2.754a.389.389,0,0,0,.388.389h3.454a.389.389,0,0,0,.388-.389Zm0,0" transform="translate(623.002 108.001)" fill="#404553"/>
  </g>
</svg>
