<svg xmlns="http://www.w3.org/2000/svg" width="24" height="24" viewBox="0 0 24 24">
  <g id="giftbox" transform="translate(0 -0.5)">
    <path id="Path_999" data-name="Path 999" d="M43.981,189.719H63.857v14.754H43.981Zm0,0" transform="translate(-41.919 -180.343)" fill="#c2a84b"/>
    <path id="Path_1000" data-name="Path 1000" d="M43.981,189.719H63.857v2.891H43.981Zm0,0" transform="translate(-41.919 -180.343)" fill="#b29b47"/>
    <path id="Path_1001" data-name="Path 1001" d="M7.9,110.711H31.162v4.966H7.9Zm0,0" transform="translate(-7.532 -105.041)" fill="#c2a84b"/>
    <path id="Path_1002" data-name="Path 1002" d="M75.908,89.752q-.227.264-.444.535A20.208,20.208,0,0,0,71.233,100a20.306,20.306,0,0,1-1.641-2.563,21.336,21.336,0,0,0-2.541,1.95A24.43,24.43,0,0,1,72.359,87.4c.114-.139.229-.276.346-.412L74.2,88.277l1.525,1.314Zm0,0" transform="translate(-63.907 -82.435)" fill="#f47321"/>
    <path id="Path_1003" data-name="Path 1003" d="M264.853,99.389a21.328,21.328,0,0,0-2.541-1.95A20.3,20.3,0,0,1,260.671,100a20.209,20.209,0,0,0-4.231-9.715q-.218-.271-.444-.535l.186-.16,1.525-1.314,1.491-1.285q.176.2.346.412a24.426,24.426,0,0,1,5.308,11.984Zm0,0" transform="translate(-243.996 -82.435)" fill="#f47321"/>
    <path id="Path_1004" data-name="Path 1004" d="M262.129,99.6l-4.211,1.16a20.112,20.112,0,0,0-1.478-2.1l-.258-.695-.186-.5,1.711-.813,1.838-.874A24.378,24.378,0,0,1,262.129,99.6Zm0,0" transform="translate(-243.996 -90.8)" fill="#eb6c1c"/>
    <path id="Path_1005" data-name="Path 1005" d="M131.308,97.468l-.186.5-.258.695a20.057,20.057,0,0,0-1.478,2.1l-4.21-1.16a24.369,24.369,0,0,1,2.584-3.826l1.838.873Zm0,0" transform="translate(-119.308 -90.812)" fill="#eb6c1c"/>
    <g id="Group_1081" data-name="Group 1081" transform="translate(2.318 0.87)">
      <path id="Path_1006" data-name="Path 1006" d="M262.72,8.542,256,11.735l1.291,3.474,7.172-1.976a1.66,1.66,0,0,0,1.114-2.178l-.592-1.593a1.658,1.658,0,0,0-2.266-.921Zm0,0" transform="translate(-246.318 -8.381)" fill="#f47321"/>
      <path id="Path_1007" data-name="Path 1007" d="M52.415,8.542l6.72,3.194-1.291,3.474-7.172-1.976a1.66,1.66,0,0,1-1.114-2.178l.592-1.593a1.658,1.658,0,0,1,2.266-.921Zm0,0" transform="translate(-49.452 -8.381)" fill="#f47321"/>
      <path id="Path_1008" data-name="Path 1008" d="M214.394,54.441h-2.107a1.045,1.045,0,0,0-1.044,1.045V58.55a1.045,1.045,0,0,0,1.044,1.045h2.107a1.045,1.045,0,0,0,1.044-1.045V55.486A1.045,1.045,0,0,0,214.394,54.441Zm0,0" transform="translate(-203.658 -52.281)" fill="#f47321"/>
      <path id="Path_1009" data-name="Path 1009" d="M216.5,216.586h3.7v13.493h-3.7Zm0,0" transform="translate(-208.666 -206.82)" fill="#f47321"/>
    </g>
    <path id="Path_1010" data-name="Path 1010" d="M216.5,216.586h3.7v1.631h-3.7Zm0,0" transform="translate(-206.347 -205.95)" fill="#eb6c1c"/>
    <path id="Path_1011" data-name="Path 1011" d="M23.63,5.3H21.676a2.023,2.023,0,0,0,.249-1.884l-.592-1.593A2.028,2.028,0,0,0,18.561.7L13.875,2.923a1.406,1.406,0,0,0-.821-.263H10.947a1.407,1.407,0,0,0-.821.264L5.44.7A2.028,2.028,0,0,0,2.668,1.822L2.076,3.415a2.037,2.037,0,0,0,.1,1.633,2,2,0,0,0,.153.251H.371A.37.37,0,0,0,0,5.67V8.338a.37.37,0,1,0,.741,0V6.04H3.314c.041.014.083.028.125.04l3.11.857a24.766,24.766,0,0,0-1.822,3.329H.741V5.936a.37.37,0,1,0-.741,0v4.7a.371.371,0,0,0,.37.371H1.692V24.13a.37.37,0,0,0,.37.371H21.939a.37.37,0,0,0,.37-.371V20.424a.37.37,0,1,0-.741,0v3.336H14.223V11.235a19.858,19.858,0,0,1,2.086,6.385.37.37,0,0,0,.275.305.365.365,0,0,0,.092.012.37.37,0,0,0,.3-.148,20.668,20.668,0,0,0,1.475-2.254,21.112,21.112,0,0,1,2.165,1.695.37.37,0,0,0,.613-.33A24.874,24.874,0,0,0,19.6,11.007h1.973v9.488a.37.37,0,1,0,.741,0V11.007H23.63a.37.37,0,0,0,.37-.371V5.67a.37.37,0,0,0-.37-.371ZM18.879,1.366a1.288,1.288,0,0,1,1.76.715l.592,1.592a1.289,1.289,0,0,1-.866,1.692l-5.9,1.624V5.208C15.794,4.4,19.1,2.721,19.921,3.883a.37.37,0,1,0,.6-.428c-.635-.9-1.972-.94-3.975-.129a17.638,17.638,0,0,0-2.081,1.024V4.075a1.41,1.41,0,0,0-.115-.559ZM10.947,3.4h2.107a.675.675,0,0,1,.674.674V7.139a.675.675,0,0,1-.674.674H10.947a.675.675,0,0,1-.674-.674V4.075A.675.675,0,0,1,10.947,3.4Zm-.623,6.865a19.77,19.77,0,0,1,1.155-1.71h1.042a19.688,19.688,0,0,1,1.155,1.71ZM2.831,4.71A1.276,1.276,0,0,1,2.77,3.673l.592-1.593a1.287,1.287,0,0,1,1.759-.715L9.647,3.517a1.408,1.408,0,0,0-.115.559V4.37A17.7,17.7,0,0,0,7.415,3.325c-2-.811-3.341-.767-3.975.129a.37.37,0,1,0,.6.428c.83-1.172,4.188.545,5.488,1.348V6.99l-5.9-1.624a1.274,1.274,0,0,1-.8-.655ZM9.7,7.8a1.421,1.421,0,0,0,.894.706,20.629,20.629,0,0,0-3.484,8.119,20.286,20.286,0,0,1-1.1-1.8.37.37,0,0,0-.528-.134,21.46,21.46,0,0,0-1.8,1.318A24.226,24.226,0,0,1,7.3,7.143Zm-7.266,3.2H4.406A24.88,24.88,0,0,0,2.777,16.9a.37.37,0,0,0,.613.33,21.094,21.094,0,0,1,2.165-1.695A20.66,20.66,0,0,0,7.03,17.789a.37.37,0,0,0,.3.148.365.365,0,0,0,.092-.012.37.37,0,0,0,.275-.305,19.868,19.868,0,0,1,2.086-6.385V23.759H2.433Zm8.086,12.752V11.007h2.963V23.759Zm8-9.066a.37.37,0,0,0-.528.134,20.26,20.26,0,0,1-1.1,1.8A20.623,20.623,0,0,0,13.408,8.51,1.421,1.421,0,0,0,14.3,7.8l2.4-.661a24.239,24.239,0,0,1,3.622,8.869,21.492,21.492,0,0,0-1.8-1.318Zm4.741-4.428H19.275a24.785,24.785,0,0,0-1.822-3.329l3.109-.857c.042-.012.084-.025.125-.04H23.26Zm0,0" transform="translate(0)"/>
  </g>
</svg>
