<svg xmlns="http://www.w3.org/2000/svg" width="35" height="23.334" viewBox="0 0 35 23.334">
  <g id="payment-method" transform="translate(-29.69 -0.023)">
    <g id="Group_1382" data-name="Group 1382" transform="translate(52.155 8.989)">
      <g id="Group_1381" data-name="Group 1381">
        <path id="Path_6392" data-name="Path 6392" d="M340.688,124.082a.7.7,0,0,0-.042-.137.689.689,0,0,0-.067-.125.709.709,0,0,0-.2-.2.737.737,0,0,0-.125-.067.707.707,0,0,0-.136-.041.717.717,0,0,0-.284,0,.68.68,0,0,0-.136.041.717.717,0,0,0-.126.067.711.711,0,0,0-.2.2.748.748,0,0,0-.067.125.7.7,0,0,0-.041.137.7.7,0,0,0,0,.283.678.678,0,0,0,.041.136.727.727,0,0,0,.067.126.712.712,0,0,0,.2.2.719.719,0,0,0,.126.067.735.735,0,0,0,.136.041.717.717,0,0,0,.142.015.728.728,0,0,0,.142-.015.767.767,0,0,0,.136-.041.739.739,0,0,0,.125-.067.71.71,0,0,0,.2-.2.756.756,0,0,0,.109-.261.737.737,0,0,0,0-.283Z" transform="translate(-339.25 -123.498)" fill="#fff"/>
      </g>
    </g>
    <g id="Group_1384" data-name="Group 1384" transform="translate(29.691 0.023)">
      <g id="Group_1383" data-name="Group 1383">
        <path id="Path_6393" data-name="Path 6393" d="M63.965,2.482H59.65a.726.726,0,0,0-.726.726v.627H56.9a.726.726,0,0,0-.726.726V4.77a5.143,5.143,0,0,1-2.651-.952,43.9,43.9,0,0,0-4.36-2.227l-.032-.013a6.171,6.171,0,0,0-4.739.075L41.475,2.7,39.013.236a.725.725,0,0,0-1.026,0L29.906,8.321a.72.72,0,0,0,0,1.027L43.715,23.165a.784.784,0,0,0,1.026,0l7.378-7.382c.192.017.391.025.6.025a5.8,5.8,0,0,0,4.532-2.72h6.717a.726.726,0,0,0,.726-.726V3.208A.726.726,0,0,0,63.965,2.482ZM38.5,1.776l1.654,1.655a3.162,3.162,0,0,1-3.308,0ZM33.1,10.49,31.445,8.835,33.1,7.18a3.167,3.167,0,0,1,0,3.31ZM44.228,21.624,42.574,19.97a3.158,3.158,0,0,1,3.307,0Zm2.7-2.7a4.609,4.609,0,0,0-5.4,0l-7.384-7.388a4.616,4.616,0,0,0,0-5.4L35.8,4.477a4.61,4.61,0,0,0,5.4,0l1.57,1.57A2.876,2.876,0,0,0,40.61,7.631a4.139,4.139,0,1,0,4.756,5.123l2.45.832a4.638,4.638,0,0,0,.769,3.68Zm-4.412-7.138.019.007,1.451.493a2.685,2.685,0,1,1-3.645-3.069A3.214,3.214,0,0,0,42.515,11.785Zm7.115,4.434a3.177,3.177,0,0,1-.464-1.51,5.641,5.641,0,0,0,1.28.693Zm6.546-4.146a4.481,4.481,0,0,1-3.46,2.283,5.279,5.279,0,0,1-.757-.053h0a4.156,4.156,0,0,1-2.688-1.472c-.015-.022-.078-.1-.087-.118a.723.723,0,0,0-.4-.333l-5.77-1.959A1.629,1.629,0,0,1,41.827,8.5v0a1.414,1.414,0,0,1,1.737-.974l6.5,2.061A.726.726,0,0,0,50.5,8.2l-5.171-1.64-.045-.045h0L42.61,3.834l2.3-.824L44.936,3l.008,0,.029-.013a4.7,4.7,0,0,1,3.614-.062A42.025,42.025,0,0,1,52.8,5.076a6.528,6.528,0,0,0,3.376,1.149Zm2.749-.437h-1.3V5.288h1.3Zm4.315,0H60.376v-7.7h2.863Z" transform="translate(-29.691 -0.023)" fill="#fff"/>
      </g>
    </g>
  </g>
</svg>
