<svg xmlns="http://www.w3.org/2000/svg" width="25" height="25" viewBox="0 0 25 25">
  <g id="phone" transform="translate(-0.344 0)">
    <g id="Group_887" data-name="Group 887" transform="translate(0.344 0)">
      <path id="Path_800" data-name="Path 800" d="M20.113,41.447a2.464,2.464,0,0,0-1.786-.818,2.548,2.548,0,0,0-1.807.813L14.85,43.1c-.137-.074-.275-.142-.407-.211-.19-.095-.37-.185-.523-.28a18.139,18.139,0,0,1-4.349-3.957,10.689,10.689,0,0,1-1.427-2.248c.433-.4.835-.807,1.226-1.2.148-.148.3-.3.444-.448a2.419,2.419,0,0,0,0-3.651l-1.443-1.44c-.164-.164-.333-.332-.491-.5-.317-.327-.65-.665-.993-.981a2.5,2.5,0,0,0-1.77-.776,2.59,2.59,0,0,0-1.8.776l-.011.011L1.513,30A3.858,3.858,0,0,0,.366,32.456a9.238,9.238,0,0,0,.676,3.915A22.712,22.712,0,0,0,5.085,43.1a24.861,24.861,0,0,0,8.28,6.474,12.915,12.915,0,0,0,4.65,1.372c.111.005.227.011.333.011A3.984,3.984,0,0,0,21.4,49.651c.005-.011.016-.016.021-.026a12,12,0,0,1,.925-.955c.227-.216.46-.443.687-.681a2.63,2.63,0,0,0,.8-1.826,2.534,2.534,0,0,0-.814-1.81ZM22,47c-.005,0-.005.005,0,0-.206.222-.417.422-.645.644A13.883,13.883,0,0,0,20.34,48.7a2.549,2.549,0,0,1-1.987.839c-.079,0-.164,0-.243-.005A11.473,11.473,0,0,1,13.989,48.3a23.467,23.467,0,0,1-7.8-6.1,21.415,21.415,0,0,1-3.8-6.326,7.524,7.524,0,0,1-.592-3.3A2.421,2.421,0,0,1,2.522,31l1.8-1.8a1.2,1.2,0,0,1,.8-.375A1.131,1.131,0,0,1,5.9,29.2l.016.016c.322.3.629.612.951.944.164.169.333.338.5.512l1.443,1.44a1.006,1.006,0,0,1,0,1.636c-.153.153-.3.306-.454.454-.444.454-.867.876-1.326,1.287-.011.011-.021.016-.026.026a1.075,1.075,0,0,0-.275,1.2l.016.047a11.562,11.562,0,0,0,1.707,2.781l.005.005a19.385,19.385,0,0,0,4.692,4.263,7.218,7.218,0,0,0,.65.354c.19.095.37.185.523.28.021.011.042.026.063.037a1.147,1.147,0,0,0,.523.132,1.13,1.13,0,0,0,.8-.364l1.807-1.8a1.2,1.2,0,0,1,.8-.4,1.077,1.077,0,0,1,.761.385l.011.011L22,45.351A1.042,1.042,0,0,1,22,47Z" transform="translate(-0.344 -25.96)" fill="#404553"/>
      <path id="Path_801" data-name="Path 801" d="M245.531,87.338a6.8,6.8,0,0,1,5.538,5.53.709.709,0,0,0,.7.591.946.946,0,0,0,.122-.011.713.713,0,0,0,.587-.823,8.217,8.217,0,0,0-6.7-6.691.717.717,0,0,0-.824.58A.7.7,0,0,0,245.531,87.338Z" transform="translate(-232.019 -81.391)" fill="#404553"/>
      <path id="Path_802" data-name="Path 802" d="M260.637,11.028A13.53,13.53,0,0,0,249.6.011a.711.711,0,1,0-.232,1.4,12.085,12.085,0,0,1,9.86,9.846.709.709,0,0,0,.7.591.946.946,0,0,0,.122-.011A.7.7,0,0,0,260.637,11.028Z" transform="translate(-235.648 0)" fill="#404553"/>
    </g>
  </g>
</svg>
