<svg id="play-button" xmlns="http://www.w3.org/2000/svg" width="61" height="61" viewBox="0 0 61 61">
  <path id="Path_5755" data-name="Path 5755" d="M30.5,3.05A27.45,27.45,0,1,1,3.05,30.5,27.481,27.481,0,0,1,30.5,3.05M30.5,0A30.5,30.5,0,1,0,61,30.5,30.5,30.5,0,0,0,30.5,0Z" fill="#fff"/>
  <path id="Path_5756" data-name="Path 5756" d="M168.337,119.277,152.1,108.588c-2.8-1.844-5.1-.607-5.1,2.748V133.83c0,3.355,2.3,4.6,5.1,2.759l16.225-10.618C171.137,124.132,171.14,121.121,168.337,119.277Z" transform="translate(-125.65 -92.086)" fill="#fff"/>
</svg>
