<svg xmlns="http://www.w3.org/2000/svg" width="40" height="26.855" viewBox="0 0 40 26.855">
  <g id="_3dd916f" data-name="3dd916f" transform="translate(-232.326 -178.921)">
    <path id="Path_5770" data-name="Path 5770" d="M272.019,191.161c-2.351-3.808-4.659-7.64-6.989-11.463-.23-.376-.469-.914-.989-.744-1.419.463-2.936.039-4.376.8-1.968,1.039-4.14,1.685-6.192,2.575a2.977,2.977,0,0,1-2.261.045c-3.294-1.03-6.171-3.253-9.848-3.274-.923-.006-1.425-.021-1.909.789-2.219,3.713-4.453,7.419-6.747,11.084-.7,1.126-.424,1.628.726,2.1,2.53,1.033,4.991,2.246,7.539,3.229,1.2.463,1.407,1.1,1.18,2.246-.4,2.046-.684,4.119-1.027,6.245-.036,1.1.538,1.159,1.422.768,2.682-1.186,5.4-2.3,8.05-3.551a3.561,3.561,0,0,1,3.351-.036c2.646,1.263,5.355,2.4,8.052,3.548,1.234.526,1.583.278,1.41-1.033-.26-1.971-.529-3.946-.938-5.89a1.71,1.71,0,0,1,1.248-2.327c2.593-1.007,5.107-2.216,7.673-3.294C272.344,192.571,272.6,192.1,272.019,191.161ZM253.157,184c.642-1.144,2.575-1.263,3.934-1.846,1.186-.508,2.407-.932,3.575-1.47.7-.32,1.063-.164,1.425.484q1.555,2.8,3.211,5.532c.4.663.212.932-.421,1.2q-5.533,2.383-11.039,4.824c-.747.332-.962.134-.941-.633.033-1.24.009-2.479.009-3.722h.11C253.02,186.884,252.524,185.122,253.157,184Zm-10.585-2.9a.871.871,0,0,1,1.317-.433c2.333.983,4.686,1.918,7.043,2.84a1.113,1.113,0,0,1,.8,1.234c-.042,1.24-.012,2.482-.012,3.725s-.018,2.485.006,3.725c.015.726-.23.851-.878.564q-5.587-2.464-11.189-4.886c-.582-.251-.729-.514-.376-1.1Q240.968,183.954,242.572,181.092Zm.1,22.891c.338-2.106.636-3.934.923-5.765.069-.442.269-.609.7-.421l6.272,2.736C247.8,201.743,245.382,202.8,242.667,203.983Zm8.877-5.1c-.269.842-.926.134-1.32-.033-5.027-2.159-10.03-4.376-15.057-6.538-.893-.385-1.263-.687-.624-1.691,1.947-3.064,3.8-6.195,5.687-9.295.176-.287.4-.544.594-.8.621.188.4.508.221.815q-1.2,2.065-2.4,4.134c-.275.475-.556.944-.821,1.422-1.646,2.963-1.467,3.521,1.529,4.83l10.8,4.722a9.767,9.767,0,0,1,.953.43C251.98,197.374,251.738,198.27,251.544,198.879Zm-.033-3.139c-4.179-1.855-8.378-3.671-12.566-5.508-.385-.17-.911-.269-.723-.92.09-.308.179-.582.669-.484.29.125.657.278,1.022.439,3.734,1.634,7.479,3.247,11.195,4.916a2.676,2.676,0,0,0,2.4,0c3.808-1.711,7.637-3.375,11.475-5.021.4-.17.974-.836,1.35.03.335.771-.361.9-.839,1.111-4.095,1.8-8.2,3.581-12.291,5.391A1.9,1.9,0,0,1,251.511,195.74Zm2.554,4.8c2.237-.983,4.182-1.828,6.12-2.688.559-.248.789-.1.875.517.254,1.762.556,3.515.9,5.621Zm15.421-8.241c-5.063,2.171-10.1,4.4-15.161,6.583-.373.161-.983.8-1.234.084a1.637,1.637,0,0,1,.326-2.04,4.969,4.969,0,0,1,.947-.433c4.092-1.792,8.175-3.608,12.285-5.352,1.024-.433,1.281-.908.977-2.025-.7-2.554-2.383-4.558-3.527-6.858-.251-.5-.786-.908-.63-1.7.684.048.78.562.995.911,1.873,3.047,3.683,6.129,5.6,9.143C270.693,191.588,270.415,191.9,269.486,192.3Z" transform="translate(0 0)" fill="#404553" opacity="0.5"/>
    <path id="Path_5772" data-name="Path 5772" d="M269.4,206.522c-2.664-1.093-5.337-2.165-8.008-3.244-.182-.075-.367-.146-.472-.185-.293-.042-.523-.036-.568.2-.09.478.329.55.633.675q4.072,1.658,8.148,3.3c.3.122.732.421.926.012C270.324,206.719,269.721,206.656,269.4,206.522Z" transform="translate(-19.646 -16.938)" fill="#404553"/>
    <path id="Path_5773" data-name="Path 5773" d="M271.654,201.489q-4-1.626-8-3.235a2.244,2.244,0,0,0-.287-.075c-.218.006-.406.09-.427.317-.027.3.215.421.442.514q4,1.626,8,3.238c.233.1.535.152.669-.1C272.239,201.779,271.923,201.6,271.654,201.489Z" transform="translate(-21.466 -13.506)" fill="#404553"/>
    <path id="Path_5774" data-name="Path 5774" d="M273.88,196.513q-3.8-1.546-7.607-3.082c-.254-.1-.523-.048-.579.263s.212.418.439.511q3.665,1.487,7.333,2.963c.278.111.585.185.7-.119A.418.418,0,0,0,273.88,196.513Z" transform="translate(-23.396 -10.143)" fill="#404553"/>
    <path id="Path_5775" data-name="Path 5775" d="M276.114,191.541q-3.508-1.438-7.031-2.846c-.239-.1-.514-.072-.585.248-.051.221.108.367.3.445q3.445,1.407,6.888,2.8a.457.457,0,0,0,.7-.335C276.3,191.759,276.233,191.588,276.114,191.541Z" transform="translate(-25.361 -6.819)" fill="#404553"/>
    <path id="Path_5776" data-name="Path 5776" d="M305.878,207.364c.093-.033.188-.063.281-.1q4.216-1.7,8.429-3.4c.311-.125.771-.287.523-.708-.215-.364-.627-.1-.944.024l-8.017,3.235a3.074,3.074,0,0,0-.541.251c-.164.108-.323.257-.218.487A.384.384,0,0,0,305.878,207.364Z" transform="translate(-51.219 -16.863)" fill="#404553"/>
    <path id="Path_5777" data-name="Path 5777" d="M305.66,202.175q3.862-1.564,7.718-3.13c.272-.111.576-.188.585-.582-.191-.5-.541-.287-.851-.164q-3.866,1.55-7.724,3.118c-.3.122-.762.248-.538.7C305,202.423,305.379,202.285,305.66,202.175Z" transform="translate(-50.821 -13.484)" fill="#404553"/>
    <path id="Path_5778" data-name="Path 5778" d="M305.237,197.119q3.513-1.411,7.022-2.843c.269-.108.57-.194.6-.57-.2-.475-.538-.3-.86-.173q-3.512,1.411-7.025,2.837c-.3.122-.762.248-.547.7C304.583,197.385,304.968,197.227,305.237,197.119Z" transform="translate(-50.53 -10.149)" fill="#404553"/>
    <path id="Path_5779" data-name="Path 5779" d="M304.607,192.053q3.109-1.241,6.213-2.5c.263-.108.579-.176.7-.529-.134-.633-.579-.382-.9-.254-2.121.842-4.235,1.705-6.344,2.572-.3.122-.789.209-.576.672C303.9,192.447,304.3,192.172,304.607,192.053Z" transform="translate(-50.019 -6.794)" fill="#404553"/>
  </g>
</svg>
