<svg xmlns="http://www.w3.org/2000/svg" width="37" height="26" viewBox="0 0 37 26">
  <g id="sdw" transform="translate(0 0)">
    <path id="Union_28" data-name="Union 28" d="M2.6,26A2.551,2.551,0,0,1,0,23.508V2.491A2.55,2.55,0,0,1,2.6,0H34.4A2.55,2.55,0,0,1,37,2.491V23.508A2.552,2.552,0,0,1,34.4,26ZM1.233,23.508A1.341,1.341,0,0,0,2.6,24.818H34.4a1.342,1.342,0,0,0,1.366-1.311V8.863H1.233Zm0-15.826v0Zm0-5.191v.463H35.766V2.491A1.341,1.341,0,0,0,34.4,1.181H2.6A1.34,1.34,0,0,0,1.233,2.491Z" transform="translate(0)" fill="#404553"/>
    <path id="Path_5634" data-name="Path 5634" d="M6.617,28.182h5.55a.591.591,0,1,0,0-1.182H6.617a.591.591,0,1,0,0,1.182Z" transform="translate(-2.3 -15.773)" fill="#404553"/>
    <path id="Path_5635" data-name="Path 5635" d="M19.617,28.182h5.55a.591.591,0,1,0,0-1.182h-5.55a.591.591,0,1,0,0,1.182Z" transform="translate(-7.284 -15.773)" fill="#404553"/>
    <path id="Path_5636" data-name="Path 5636" d="M6.617,33.182h.617a.591.591,0,1,0,0-1.182H6.617a.591.591,0,1,0,0,1.182Z" transform="translate(-2.3 -17.819)" fill="#404553"/>
    <path id="Path_5637" data-name="Path 5637" d="M12.85,32H11.617a.591.591,0,1,0,0,1.182H12.85a.591.591,0,1,0,0-1.182Z" transform="translate(-4.217 -17.819)" fill="#404553"/>
    <path id="Path_5638" data-name="Path 5638" d="M17.617,33.182h.617a.591.591,0,1,0,0-1.182h-.617a.591.591,0,1,0,0,1.182Z" transform="translate(-6.517 -17.819)" fill="#404553"/>
    <path id="Path_5639" data-name="Path 5639" d="M23.85,32H22.617a.591.591,0,1,0,0,1.182H23.85a.591.591,0,1,0,0-1.182Z" transform="translate(-8.434 -17.819)" fill="#404553"/>
    <path id="Path_5640" data-name="Path 5640" d="M28.179,32.176A.608.608,0,0,0,28,32.6a.6.6,0,0,0,.179.42.645.645,0,0,0,.876,0,.582.582,0,0,0,0-.839A.667.667,0,0,0,28.179,32.176Z" transform="translate(-10.734 -17.824)" fill="#404553"/>
    <path id="Path_5641" data-name="Path 5641" d="M38.317,41.273a4.431,4.431,0,0,0,2.158-.56,4.431,4.431,0,0,0,2.158.56,4.14,4.14,0,1,0,0-8.273,4.431,4.431,0,0,0-2.158.56A4.431,4.431,0,0,0,38.317,33a4.14,4.14,0,1,0,0,8.273Zm1.233-4.136a2.884,2.884,0,0,1,.925-2.1,2.857,2.857,0,0,1,0,4.21A2.884,2.884,0,0,1,39.55,37.136Zm6.167,0a3.024,3.024,0,0,1-3.083,2.955,3.166,3.166,0,0,1-1.1-.2,3.984,3.984,0,0,0,0-5.5,3.166,3.166,0,0,1,1.1-.2A3.024,3.024,0,0,1,45.717,37.136Zm-7.4-2.955a3.166,3.166,0,0,1,1.1.2,3.984,3.984,0,0,0,0,5.5,3.166,3.166,0,0,1-1.1.2,2.957,2.957,0,1,1,0-5.909Z" transform="translate(-13.034 -18.228)" fill="#404553"/>
  </g>
</svg>
