<svg xmlns="http://www.w3.org/2000/svg" width="35" height="35" viewBox="0 0 35 35">
  <g id="st6" transform="translate(14 -11)">
    <g id="Group_864" data-name="Group 864" transform="translate(-14 11)">
      <g id="st6-2" data-name="st6">
        <path id="Path_742" data-name="Path 742" d="M31.4,7.3H24.842a4.359,4.359,0,0,0-6.307-6.014,8.139,8.139,0,0,0-1.677,2.661A8.139,8.139,0,0,0,15.18,1.285a4.267,4.267,0,0,0-3.1-1.276A4.356,4.356,0,0,0,7.706,4.383,4.3,4.3,0,0,0,8.836,7.3H3.7A3.656,3.656,0,0,0,.05,10.944V13.86a2.256,2.256,0,0,0,1.458,2.078V31.355C1.508,33.433,3.623,35,5.519,35H29.946a3.656,3.656,0,0,0,3.646-3.645V15.937A2.2,2.2,0,0,0,35.05,13.86V10.944A3.656,3.656,0,0,0,31.4,7.3ZM19.555,2.305a2.913,2.913,0,1,1,4.12,4.119,6.5,6.5,0,0,1-.984.765.64.64,0,0,0-.182.146H17.55a.7.7,0,0,0,.109-.364A7.714,7.714,0,0,1,19.555,2.305ZM10.04,2.269a2.905,2.905,0,0,1,4.083,0,7.69,7.69,0,0,1,1.9,4.593.616.616,0,0,0,.109.364H11.206a.564.564,0,0,1-.219-.109,3.136,3.136,0,0,1-.948-.729A2.925,2.925,0,0,1,10.04,2.269Zm6.052,31.273H5.519a2.564,2.564,0,0,1-2.552-2.187V16.047H16.092Zm17.5-19.682a.751.751,0,0,1-.583.729.036.036,0,0,0-.036.036h-.109a.731.731,0,0,0-.729.729V31.392a2.194,2.194,0,0,1-2.187,2.187H17.55V16.047h7.292a.729.729,0,1,0,0-1.458H17.55v-3.28a.729.729,0,0,0-1.458,0v3.28H2.237a.731.731,0,0,1-.729-.729V10.944A2.194,2.194,0,0,1,3.7,8.757H31.4a2.194,2.194,0,0,1,2.188,2.187Z" transform="translate(-0.05 0)" fill="#404553"/>
        <path id="Path_743" data-name="Path 743" d="M301.874,160.1h-1.094a.729.729,0,0,0,0,1.459h1.094a.729.729,0,1,0,0-1.459Z" transform="translate(-272.709 -145.512)" fill="#404553"/>
      </g>
    </g>
  </g>
</svg>
