<svg xmlns="http://www.w3.org/2000/svg" width="25.258" height="25.254" viewBox="0 0 25.258 25.254">
  <g id="whatsapp" transform="translate(-1.842 -3.335)">
    <g id="whatsapp-logo" transform="translate(2 3.435)">
      <path id="WhatsApp-2" data-name="WhatsApp" d="M25,12.178A12.293,12.293,0,0,1,6.795,22.841L0,25l2.215-6.534A12.05,12.05,0,0,1,.454,12.178a12.273,12.273,0,0,1,24.546,0ZM12.727,1.939A10.29,10.29,0,0,0,2.409,12.178a10.131,10.131,0,0,0,1.966,6l-1.289,3.8,3.965-1.26a10.329,10.329,0,0,0,16-8.544A10.291,10.291,0,0,0,12.727,1.939Zm6.2,13.043c-.076-.124-.276-.2-.577-.348s-1.781-.872-2.056-.971-.477-.149-.677.149-.777.971-.953,1.17-.351.225-.652.075a8.234,8.234,0,0,1-2.419-1.481A9,9,0,0,1,9.918,11.51c-.175-.3-.018-.46.132-.609s.3-.349.451-.523a2,2,0,0,0,.3-.5.544.544,0,0,0-.025-.523c-.075-.149-.677-1.618-.928-2.216s-.5-.5-.677-.5S8.8,6.619,8.6,6.619a1.11,1.11,0,0,0-.8.373,3.338,3.338,0,0,0-1.053,2.49,5.776,5.776,0,0,0,1.228,3.087,12.3,12.3,0,0,0,5.139,4.506c3.059,1.195,3.059.8,3.61.746A3.043,3.043,0,0,0,18.749,16.4,2.489,2.489,0,0,0,18.925,14.983Z" fill="#404553" stroke="#fff" stroke-width="0.2"/>
    </g>
  </g>
</svg>
